<svg width="66" height="68" viewBox="0 0 66 68" fill="none" xmlns="http://www.w3.org/2000/svg">
<path d="M12.3658 38.5845C10.6172 30.715 15.5604 23.603 18.2505 21.0307C15.0896 25.8474 15.3922 31.122 18.0824 33.1573C25.4803 38.7541 25.9847 29.2564 25.9847 26.2884C25.9847 23.7943 23.1264 20.4371 24.4715 13.7378C25.5476 8.37836 32.2057 2.12003 36.1568 0C33.2145 2.03523 33.1304 11.109 38.0904 17.2146C42.0583 22.0992 42.9382 29.7652 42.8822 32.9877C48.2625 31.4273 46.9174 23.4617 45.5723 19.6739C47.4498 21.8504 51.4739 27.3569 52.5499 31.9701C53.895 37.7365 52.0815 43.927 49.0191 48.2519C47.0976 50.9655 42.9663 54.4424 36.9975 55.6296C31.0287 56.8168 25.4803 54.8664 23.0424 53.764C20.6044 52.6615 14.5516 48.4215 12.3658 38.5845Z" fill="#53377A"/>
<path d="M37.3034 3C45.5757 4.07616 53.1287 8.2116 58.4423 14.574C63.756 20.9364 66.4357 29.0534 65.9422 37.2913C65.4487 45.5291 61.8185 53.2763 55.7824 58.9736C49.7463 64.6708 41.7524 67.8951 33.4095 67.9975C25.0667 68.0999 16.9943 65.0728 10.8171 59.5255C4.6399 53.9782 0.816503 46.3225 0.116435 38.0993C-0.583632 29.876 1.89161 21.6958 7.04395 15.2049C12.1963 8.71405 19.6432 4.39448 27.886 3.1156L27.5281 3.17312L24.4975 9.38238C21.2143 17.1259 18.7203 17.0703 15.1837 21.5257C11.6471 25.981 9.94809 31.596 10.4286 37.2404C10.9091 42.8849 13.5335 48.1398 17.7736 51.9475C22.0136 55.7552 27.5545 57.833 33.2811 57.7627C39.0077 57.6924 44.4947 55.4792 48.6379 51.5686C52.7811 47.658 55.2729 42.3403 55.6116 36.6858C55.9504 31.0313 54.111 25.4598 50.4637 21.0926C46.8164 16.7255 37.3034 13.8786 37.3034 11.6305V3Z" fill="#333333"/>
</svg>
